<svg width="54" height="54" viewBox="0 0 54 54" fill="none" xmlns="http://www.w3.org/2000/svg">
<path d="M53.1967 11.1082C51.318 11.9407 49.2997 12.5032 47.178 12.7575C49.3672 11.4475 51.0051 9.38579 51.786 6.95699C49.7291 8.17872 47.478 9.03868 45.1305 9.49949C43.5519 7.81394 41.4609 6.69672 39.1822 6.32131C36.9036 5.94589 34.5647 6.33327 32.5288 7.42331C30.4928 8.51335 28.8737 10.2451 27.9228 12.3496C26.9719 14.4541 26.7425 16.8137 27.27 19.062C23.1023 18.8527 19.0252 17.7695 15.3032 15.8825C11.5812 13.9956 8.29764 11.3471 5.6655 8.10899C4.7655 9.66149 4.248 11.4615 4.248 13.3785C4.24699 15.1042 4.67197 16.8035 5.48522 18.3256C6.29848 19.8477 7.47486 21.1456 8.91 22.104C7.24562 22.051 5.61796 21.6013 4.1625 20.7922V20.9272C4.16233 23.3477 4.99957 25.6936 6.53216 27.567C8.06475 29.4404 10.1983 30.7258 12.5707 31.2052C11.0268 31.6231 9.40801 31.6846 7.83675 31.3852C8.50611 33.4679 9.80999 35.289 11.5658 36.5938C13.3217 37.8986 15.4416 38.6216 17.6287 38.6617C13.9159 41.5764 9.33049 43.1574 4.61025 43.1505C3.7741 43.1507 2.93867 43.1019 2.10825 43.0042C6.89957 46.0849 12.477 47.7198 18.1732 47.7135C37.4557 47.7135 47.997 31.743 47.997 17.892C47.997 17.442 47.9857 16.9875 47.9655 16.5375C50.0159 15.0547 51.7858 13.2185 53.1922 11.115L53.1967 11.1082V11.1082Z" fill="#2EE0D0"/>
</svg>
