<svg width="54" height="54" viewBox="0 0 54 54" fill="none" xmlns="http://www.w3.org/2000/svg">
<path fill-rule="evenodd" clip-rule="evenodd" d="M27 0C12.0825 0 0 12.0825 0 27C0 38.9475 7.72875 49.0388 18.4612 52.6163C19.8112 52.8525 20.3175 52.0425 20.3175 51.3338C20.3175 50.6925 20.2838 48.5662 20.2838 46.305C13.5 47.5537 11.745 44.6513 11.205 43.1325C10.9013 42.3563 9.585 39.96 8.4375 39.3188C7.4925 38.8125 6.1425 37.5638 8.40375 37.53C10.53 37.4963 12.0487 39.4875 12.555 40.2975C14.985 44.3812 18.8662 43.2337 20.4187 42.525C20.655 40.77 21.3638 39.5888 22.14 38.9138C16.1325 38.2388 9.855 35.91 9.855 25.5825C9.855 22.6462 10.9013 20.2163 12.6225 18.3263C12.3525 17.6513 11.4075 14.8838 12.8925 11.1713C12.8925 11.1713 15.1537 10.4625 20.3175 13.9388C22.4775 13.3313 24.7725 13.0275 27.0675 13.0275C29.3625 13.0275 31.6575 13.3313 33.8175 13.9388C38.9812 10.4288 41.2425 11.1713 41.2425 11.1713C42.7275 14.8838 41.7825 17.6513 41.5125 18.3263C43.2338 20.2163 44.28 22.6125 44.28 25.5825C44.28 35.9437 37.9688 38.2388 31.9612 38.9138C32.94 39.7575 33.7838 41.3775 33.7838 43.9087C33.7838 47.52 33.75 50.4225 33.75 51.3338C33.75 52.0425 34.2562 52.8863 35.6062 52.6163C40.9661 50.8066 45.6237 47.3618 48.9232 42.7666C52.2228 38.1714 53.9984 32.6571 54 27C54 12.0825 41.9175 0 27 0Z" fill="#2EE0D0"/>
</svg>
