<svg width="54" height="54" viewBox="0 0 54 54" fill="none" xmlns="http://www.w3.org/2000/svg">
<g clip-path="url(#clip0_21_59)">
<path d="M45.7133 10.107C42.2708 8.5545 38.5808 7.407 34.722 6.7545C34.6876 6.7479 34.6521 6.75216 34.6202 6.76667C34.5884 6.78118 34.5618 6.80524 34.5443 6.8355C34.0718 7.66575 33.5453 8.748 33.1763 9.603C29.0837 8.99153 24.9231 8.99153 20.8305 9.603C20.4195 8.65544 19.956 7.73151 19.4423 6.8355C19.4248 6.80486 19.3985 6.78026 19.3667 6.76499C19.335 6.74971 19.2993 6.74448 19.2645 6.75C15.408 7.4025 11.718 8.55 8.27326 10.1048C8.24363 10.1172 8.2185 10.1384 8.20126 10.1655C1.19926 20.4593 -0.719987 30.4988 0.222763 40.4123C0.225387 40.4365 0.232923 40.46 0.244914 40.4813C0.256906 40.5026 0.2731 40.5212 0.292513 40.536C4.3794 43.5115 8.93777 45.7781 13.7768 47.241C13.8105 47.2514 13.8466 47.2514 13.8803 47.2409C13.914 47.2305 13.9438 47.2101 13.9658 47.1825C15.0071 45.7899 15.9298 44.3125 16.7243 42.7658C16.7353 42.7446 16.7416 42.7213 16.7429 42.6975C16.7442 42.6737 16.7403 42.6499 16.7315 42.6277C16.7228 42.6055 16.7094 42.5855 16.6922 42.5689C16.675 42.5524 16.6545 42.5397 16.632 42.5318C15.1785 41.9844 13.7702 41.3239 12.42 40.5563C12.3958 40.5424 12.3753 40.5227 12.3605 40.499C12.3457 40.4754 12.337 40.4484 12.3353 40.4205C12.3335 40.3926 12.3386 40.3647 12.3503 40.3393C12.3619 40.3139 12.3797 40.2918 12.402 40.275C12.6855 40.0658 12.969 39.8475 13.239 39.6293C13.2633 39.6096 13.2926 39.5971 13.3236 39.5932C13.3546 39.5892 13.386 39.5939 13.4145 39.6068C22.2503 43.5758 31.8195 43.5758 40.5518 39.6068C40.5803 39.5931 40.6121 39.5878 40.6435 39.5914C40.675 39.595 40.7048 39.6073 40.7295 39.627C40.9995 39.8475 41.2808 40.0658 41.5665 40.275C41.589 40.2915 41.6071 40.3133 41.6191 40.3385C41.6311 40.3636 41.6367 40.3914 41.6354 40.4193C41.6341 40.4471 41.6258 40.4742 41.6115 40.4981C41.5971 40.522 41.577 40.542 41.553 40.5563C40.2075 41.3303 38.808 41.985 37.3388 42.5295C37.3162 42.5377 37.2956 42.5506 37.2785 42.5674C37.2613 42.5841 37.2479 42.6044 37.2392 42.6267C37.2304 42.6491 37.2266 42.6731 37.2278 42.697C37.2291 42.721 37.2355 42.7444 37.2465 42.7658C38.0565 44.3115 38.9835 45.783 40.0028 47.1803C40.024 47.2089 40.0535 47.2304 40.0873 47.2416C40.1211 47.2529 40.1576 47.2535 40.1918 47.2433C45.0391 45.7844 49.6049 43.5167 53.6963 40.536C53.7162 40.522 53.733 40.504 53.7454 40.483C53.7578 40.4621 53.7656 40.4387 53.7683 40.4145C54.8933 28.953 51.8828 18.9945 45.783 10.17C45.7681 10.1413 45.7433 10.119 45.7133 10.107ZM18.045 34.3755C15.3855 34.3755 13.1918 31.9703 13.1918 29.0205C13.1918 26.0685 15.3428 23.6655 18.045 23.6655C20.7675 23.6655 22.941 26.0888 22.8983 29.0205C22.8983 31.9725 20.7473 34.3755 18.045 34.3755V34.3755ZM35.9888 34.3755C33.327 34.3755 31.1355 31.9703 31.1355 29.0205C31.1355 26.0685 33.2843 23.6655 35.9888 23.6655C38.7113 23.6655 40.8848 26.0888 40.842 29.0205C40.842 31.9725 38.7135 34.3755 35.9888 34.3755V34.3755Z" fill="#2EE0D0"/>
</g>
<defs>
<clipPath id="clip0_21_59">
<rect width="54" height="54" fill="white"/>
</clipPath>
</defs>
</svg>
