<svg width="54" height="54" viewBox="0 0 54 54" fill="none" xmlns="http://www.w3.org/2000/svg">
<g clip-path="url(#clip0_21_51)">
<path fill-rule="evenodd" clip-rule="evenodd" d="M39.1838 32.3595C38.5133 32.0243 35.226 30.4088 34.614 30.1838C34.002 29.961 33.5565 29.8508 33.1088 30.5213C32.6633 31.1873 31.383 32.6948 30.9937 33.1403C30.6022 33.588 30.213 33.642 29.5447 33.309C28.8765 32.9715 26.721 32.2673 24.1673 29.9903C22.1805 28.2173 20.8373 26.028 20.448 25.3575C20.0588 24.6893 20.4053 24.327 20.7405 23.994C21.042 23.6948 21.4087 23.2133 21.744 22.824C22.0792 22.4325 22.1895 22.1535 22.4123 21.7058C22.6373 21.2603 22.5247 20.871 22.356 20.5358C22.1895 20.2005 20.853 16.9088 20.295 15.57C19.7528 14.2673 19.2015 14.445 18.792 14.4225C18.4005 14.4045 17.955 14.4 17.5095 14.4C17.064 14.4 16.3395 14.5665 15.7275 15.237C15.1132 15.9053 13.3875 17.523 13.3875 20.8148C13.3875 24.1043 15.7815 27.2835 16.1168 27.7313C16.452 28.1768 20.8305 34.9313 27.5378 37.827C29.1353 38.5155 30.3795 38.9273 31.3492 39.2333C32.9512 39.744 34.4093 39.672 35.5613 39.4988C36.8438 39.3075 39.5168 37.881 40.0748 36.3195C40.6305 34.758 40.6305 33.4193 40.464 33.1403C40.2975 32.8613 39.852 32.6948 39.1815 32.3595H39.1838ZM26.9843 49.0163H26.9753C22.9915 49.017 19.0808 47.9461 15.6532 45.9158L14.8433 45.4343L6.42375 47.6438L8.6715 39.4358L8.14275 38.5943C5.91556 35.0491 4.73691 30.946 4.743 26.7593C4.7475 14.4968 14.724 4.52028 26.9932 4.52028C32.9332 4.52028 38.5178 6.83778 42.7163 11.0408C44.7871 13.1031 46.4285 15.5556 47.5454 18.2563C48.6623 20.957 49.2326 23.8525 49.2233 26.775C49.2188 39.0375 39.2422 49.0163 26.9843 49.0163V49.0163ZM45.9113 7.84803C43.4322 5.35261 40.4825 3.37399 37.2332 2.02683C33.9839 0.679675 30.4995 -0.00923259 26.982 3.11643e-05C12.2355 3.11643e-05 0.2295 12.0038 0.225 26.757C0.218167 31.4522 1.44984 36.0661 3.79575 40.1333L0 54L14.184 50.2785C18.1077 52.4163 22.5047 53.5364 26.973 53.5365H26.9843C41.7307 53.5365 53.7368 41.5328 53.7413 26.7773C53.7521 23.2611 53.0657 19.7778 51.7217 16.5286C50.3777 13.2795 48.4028 10.329 45.9113 7.84803" fill="#2EE0D0"/>
</g>
<defs>
<clipPath id="clip0_21_51">
<rect width="54" height="54" fill="white"/>
</clipPath>
</defs>
</svg>
