<svg width="54" height="54" viewBox="0 0 54 54" fill="none" xmlns="http://www.w3.org/2000/svg">
<g clip-path="url(#clip0_21_47)">
<path d="M26.9927 17.9962C22.035 17.9962 17.9891 22.0421 17.9891 27C17.9891 31.9578 22.035 36.0038 26.9927 36.0038C31.9505 36.0038 35.9964 31.9578 35.9964 27C35.9964 22.0421 31.9505 17.9962 26.9927 17.9962ZM53.997 27C53.997 23.2715 54.0308 19.5767 53.8214 15.855C53.612 11.532 52.6258 7.69546 49.4648 4.53432C46.2969 1.36643 42.4672 0.387019 38.1443 0.177628C34.4159 -0.0317638 30.7212 0.00200911 26.9995 0.00200911C23.271 0.00200911 19.5764 -0.0317638 15.8547 0.177628C11.5318 0.387019 7.69531 1.37319 4.53424 4.53432C1.36641 7.70221 0.387012 11.532 0.177624 15.855C-0.0317632 19.5835 0.00200907 23.2782 0.00200907 27C0.00200907 30.7218 -0.0317632 34.4233 0.177624 38.145C0.387012 42.468 1.37316 46.3045 4.53424 49.4657C7.70207 52.6336 11.5318 53.613 15.8547 53.8224C19.5831 54.0318 23.2778 53.998 26.9995 53.998C30.7279 53.998 34.4226 54.0318 38.1443 53.8224C42.4672 53.613 46.3037 52.6268 49.4648 49.4657C52.6326 46.2978 53.612 42.468 53.8214 38.145C54.0375 34.4233 53.997 30.7285 53.997 27V27ZM26.9927 40.8536C19.3265 40.8536 13.1394 34.6664 13.1394 27C13.1394 19.3336 19.3265 13.1464 26.9927 13.1464C34.659 13.1464 40.8461 19.3336 40.8461 27C40.8461 34.6664 34.659 40.8536 26.9927 40.8536ZM41.4135 15.8144C39.6235 15.8144 38.1781 14.369 38.1781 12.579C38.1781 10.789 39.6235 9.34357 41.4135 9.34357C43.2034 9.34357 44.6488 10.789 44.6488 12.579C44.6494 13.004 44.5661 13.425 44.4037 13.8178C44.2412 14.2106 44.003 14.5675 43.7024 14.868C43.4019 15.1685 43.045 15.4068 42.6522 15.5692C42.2595 15.7317 41.8385 15.815 41.4135 15.8144V15.8144Z" fill="#2EE0D0"/>
</g>
<defs>
<clipPath id="clip0_21_47">
<rect width="54" height="54" fill="white"/>
</clipPath>
</defs>
</svg>
