<svg width="54" height="54" viewBox="0 0 54 54" fill="none" xmlns="http://www.w3.org/2000/svg">
<path d="M27 0C41.8871 0 54 9.828 54 21.9105C54 26.7469 52.1269 31.1006 48.2119 35.3903C42.5486 41.9108 29.8822 49.8521 27 51.0671C24.1988 52.2484 24.5227 50.4023 24.651 49.6733L24.6611 49.6125L25.0459 47.3006C25.137 46.6121 25.2315 45.5422 24.9581 44.8605C24.6544 44.1079 23.4596 43.7164 22.5821 43.5274C9.60525 41.8163 0 32.7409 0 21.9105C0 9.828 12.1163 0 27 0ZM16.9492 25.9402H11.8024V16.5983C11.8024 16.4592 11.7474 16.3258 11.6494 16.2271C11.5514 16.1285 11.4183 16.0726 11.2793 16.0718H9.3825C9.31336 16.0718 9.2449 16.0854 9.18102 16.1118C9.11714 16.1383 9.0591 16.1771 9.01021 16.226C8.96132 16.2748 8.92254 16.3329 8.89608 16.3968C8.86962 16.4606 8.856 16.5291 8.856 16.5983V28.3635C8.856 28.5019 8.91337 28.6335 9.0045 28.7246V28.728L9.01125 28.7347L9.018 28.7415C9.11588 28.8356 9.24671 28.8877 9.3825 28.8866H16.9492C17.2395 28.8866 17.4724 28.6504 17.4724 28.3601V26.4701C17.4728 26.401 17.4596 26.3324 17.4336 26.2684C17.4075 26.2043 17.3691 26.146 17.3206 26.0968C17.272 26.0476 17.2142 26.0085 17.1505 25.9816C17.0868 25.9547 17.0184 25.9407 16.9492 25.9402V25.9402ZM19.6189 16.0718C19.4792 16.0718 19.3453 16.1272 19.2466 16.226C19.1478 16.3247 19.0924 16.4586 19.0924 16.5983V28.3635C19.0924 28.6538 19.3286 28.8866 19.6189 28.8866H21.5156C21.8059 28.8866 22.0388 28.6504 22.0388 28.3635V16.5983C22.0388 16.4592 21.9837 16.3258 21.8857 16.2271C21.7877 16.1285 21.6547 16.0726 21.5156 16.0718H19.6189ZM32.6565 16.0718C32.5169 16.0718 32.3829 16.1272 32.2842 16.226C32.1855 16.3247 32.13 16.4586 32.13 16.5983V23.5845L26.7401 16.308C26.7265 16.2903 26.7118 16.2734 26.6962 16.2574V16.254C26.6856 16.2422 26.6743 16.2309 26.6625 16.2203L26.6524 16.2101C26.6408 16.1991 26.6284 16.1889 26.6153 16.1798H26.6119L26.595 16.1662L26.5849 16.1595C26.5796 16.1556 26.574 16.1522 26.568 16.1494L26.541 16.1325H26.5342L26.5241 16.1257L26.4904 16.1123L26.4769 16.1055C26.4658 16.1015 26.4546 16.0981 26.4431 16.0954H26.4364L26.4262 16.092L26.3959 16.0852H26.3756L26.3655 16.0819H26.352L26.3453 16.0785H24.408C24.2689 16.0785 24.1355 16.1335 24.0369 16.2315C23.9383 16.3295 23.8824 16.4626 23.8815 16.6016V28.3669C23.8815 28.6571 24.1177 28.89 24.408 28.89H26.298C26.5916 28.89 26.8279 28.6537 26.8279 28.3669V21.3806L32.2279 28.6706C32.2638 28.7209 32.3084 28.7643 32.3595 28.7989L32.3629 28.8023L32.3966 28.8225L32.4101 28.8292C32.4188 28.8344 32.4278 28.8389 32.4371 28.8427L32.4608 28.8529L32.4776 28.8596C32.4888 28.8633 32.5 28.8667 32.5114 28.8697H32.5215C32.5654 28.8824 32.6108 28.8892 32.6565 28.89H34.5465C34.8401 28.89 35.0764 28.6537 35.0764 28.3669V16.5983C35.0764 16.4586 35.0209 16.3247 34.9222 16.226C34.8234 16.1272 34.6895 16.0718 34.5499 16.0718H32.6565V16.0718ZM45.5321 18.4916V16.6016C45.5326 16.5325 45.5194 16.4639 45.4933 16.3999C45.4673 16.3358 45.4289 16.2775 45.3803 16.2283C45.3317 16.1791 45.2739 16.14 45.2102 16.1131C45.1465 16.0862 45.0781 16.0722 45.009 16.0718H37.4422C37.3061 16.0719 37.1753 16.1252 37.0778 16.2203H37.0744L37.071 16.227L37.0643 16.2371C36.97 16.3338 36.9168 16.4632 36.9157 16.5983V28.3635C36.9157 28.5019 36.9731 28.6335 37.0643 28.7246L37.071 28.7347L37.0778 28.7415C37.1758 28.8353 37.3065 28.8874 37.4422 28.8866H45.009C45.2993 28.8866 45.5321 28.6504 45.5321 28.3601V26.4701C45.5326 26.401 45.5194 26.3324 45.4933 26.2684C45.4673 26.2043 45.4289 26.146 45.3803 26.0968C45.3317 26.0476 45.2739 26.0085 45.2102 25.9816C45.1465 25.9547 45.0781 25.9407 45.009 25.9402H39.8588V23.9524H45.0056C45.2959 23.9524 45.5287 23.7161 45.5287 23.4259V21.5359C45.5292 21.4667 45.516 21.3982 45.49 21.3341C45.4639 21.2701 45.4255 21.2118 45.3769 21.1626C45.3284 21.1134 45.2706 21.0742 45.2069 21.0474C45.1431 21.0205 45.0748 21.0064 45.0056 21.006H39.8588V19.0181H45.0056C45.2959 19.0181 45.5287 18.7819 45.5287 18.4916H45.5321Z" fill="#2EE0D0"/>
</svg>
