<svg width="54" height="54" viewBox="0 0 54 54" fill="none" xmlns="http://www.w3.org/2000/svg">
<g clip-path="url(#clip0_21_55)">
<path d="M48.495 8.99999C48.2905 8.97892 48.0845 8.97892 47.88 8.99999H5.87999C5.61081 9.00414 5.34341 9.0445 5.08499 9.11999L26.76 30.705L48.495 8.99999Z" fill="#2EE0D0"/>
<path d="M53.7975 9L29.2275 33.3697C28.5952 33.9958 27.7398 34.3472 26.8481 34.3472C25.9565 34.3472 25.1011 33.9958 24.4688 33.3697L0.118125 9.18487C0.0432665 9.45889 0.00357528 9.74125 0 10.0252V43.6387C0 44.5301 0.355579 45.3851 0.988515 46.0155C1.62145 46.6459 2.47989 47 3.375 47H50.625C51.5201 47 52.3786 46.6459 53.0115 46.0155C53.6444 45.3851 54 44.5301 54 43.6387V10.0252C53.9866 9.67505 53.9182 9.32914 53.7975 9V9ZM5.68688 43.6387H3.34125V41.2353L15.6094 29.1176L17.9887 31.4874L5.68688 43.6387ZM50.5912 43.6387H48.2287L35.9269 31.4874L38.3062 29.1176L50.5744 41.2353L50.5912 43.6387Z" fill="#2EE0D0"/>
</g>
<defs>
<clipPath id="clip0_21_55">
<rect width="54" height="54" fill="white"/>
</clipPath>
</defs>
</svg>
